<svg width="48" height="48" viewBox="0 0 48 48" fill="none" xmlns="http://www.w3.org/2000/svg">
<g filter="url(#filter0_d_259_158)">
<rect x="4" width="40" height="40" rx="20" fill="white"/>
<path d="M25.0312 20C25.0312 17.5831 26.9419 15.6256 29.2969 15.6256C31.6537 15.6256 33.5625 17.5812 33.5625 20C33.5625 22.4169 31.6537 24.3744 29.2969 24.3744C26.9437 24.3744 25.0312 22.4187 25.0312 20Z" fill="#1ABCFE"/>
<path d="M16.5 28.7506C16.5 26.3338 18.4106 24.3744 20.7656 24.3744H25.0313V28.7506C25.0313 31.1656 23.1206 33.125 20.7656 33.125C18.4106 33.125 16.5 31.1656 16.5 28.7506Z" fill="#0ACF83"/>
<path d="M25.0312 6.875V15.6256H29.2969C31.6537 15.6256 33.5625 13.6662 33.5625 11.2494C33.5625 8.83437 31.6537 6.875 29.2969 6.875H25.0312Z" fill="#FF7262"/>
<path d="M16.5 11.2494C16.5 13.6662 18.4106 15.6256 20.7656 15.6256H25.0313V6.875H20.7656C18.4106 6.875 16.5 8.83437 16.5 11.2494Z" fill="#F24E1E"/>
<path d="M16.5 20C16.5 22.4169 18.4106 24.3744 20.7656 24.3744H25.0313V15.6256H20.7656C18.4106 15.6256 16.5 17.5812 16.5 20Z" fill="#A259FF"/>
</g>
<defs>
<filter id="filter0_d_259_158" x="0" y="0" width="48" height="48" filterUnits="userSpaceOnUse" color-interpolation-filters="sRGB">
<feFlood flood-opacity="0" result="BackgroundImageFix"/>
<feColorMatrix in="SourceAlpha" type="matrix" values="0 0 0 0 0 0 0 0 0 0 0 0 0 0 0 0 0 0 127 0" result="hardAlpha"/>
<feOffset dy="4"/>
<feGaussianBlur stdDeviation="2"/>
<feComposite in2="hardAlpha" operator="out"/>
<feColorMatrix type="matrix" values="0 0 0 0 0 0 0 0 0 0 0 0 0 0 0 0 0 0 0.25 0"/>
<feBlend mode="normal" in2="BackgroundImageFix" result="effect1_dropShadow_259_158"/>
<feBlend mode="normal" in="SourceGraphic" in2="effect1_dropShadow_259_158" result="shape"/>
</filter>
</defs>
</svg>
