<svg width="49" height="50" viewBox="0 0 49 50" fill="none" xmlns="http://www.w3.org/2000/svg">
<g filter="url(#filter0_d_259_153)">
<rect x="4" y="1.16064" width="40" height="40" rx="20" transform="rotate(-0.306781 4 1.16064)" fill="white"/>
<g clip-path="url(#clip0_259_153)">
<path d="M35.6375 13.6478C35.6467 13.681 35.6516 13.7153 35.6518 13.7498L35.6804 19.1065C35.6812 19.2465 35.607 19.3761 35.486 19.4464L31.0038 22.059L31.0313 27.1897C31.0321 27.3294 30.9585 27.4587 30.8378 27.5296L21.4817 32.9825C21.4603 32.9948 21.4369 33.0028 21.4135 33.0112C21.4047 33.0142 21.3965 33.0196 21.3872 33.0221C21.3217 33.0397 21.2527 33.0401 21.187 33.0231C21.1763 33.0203 21.1665 33.0145 21.1562 33.0106C21.1347 33.0029 21.1122 32.9962 21.0916 32.9846L11.6796 27.6322C11.5579 27.5631 11.4823 27.4343 11.4815 27.2944L11.3955 11.2242C11.3953 11.189 11.4 11.1548 11.4086 11.1216C11.4115 11.1103 11.4182 11.1 11.4221 11.0888C11.4293 11.0682 11.436 11.0472 11.4467 11.0281C11.4539 11.0154 11.4646 11.0051 11.4733 10.9933C11.4845 10.9776 11.4946 10.9614 11.5077 10.9477C11.5189 10.9364 11.5335 10.928 11.5462 10.9182C11.5603 10.9064 11.5729 10.8937 11.5889 10.8843L11.5894 10.8843L16.2668 8.15784C16.3873 8.08763 16.5361 8.08683 16.6573 8.15575L21.3636 10.832L21.3646 10.8319C21.3802 10.8416 21.3935 10.8538 21.4077 10.8649C21.4205 10.8746 21.4347 10.8833 21.4459 10.894C21.4597 10.9081 21.4695 10.9241 21.4813 10.9397C21.4897 10.9514 21.501 10.9616 21.5079 10.9742C21.5192 10.9937 21.5257 11.0142 21.5336 11.0346C21.5376 11.0458 21.5445 11.0561 21.5475 11.0678C21.5566 11.101 21.5614 11.1353 21.5617 11.1697L21.6154 21.207L25.513 18.9349L25.4855 13.8037C25.4854 13.7696 25.4901 13.7349 25.4987 13.7021C25.502 13.6904 25.5083 13.6801 25.5122 13.6688C25.5199 13.6483 25.5266 13.6273 25.5372 13.6082C25.5445 13.5954 25.5552 13.5851 25.5634 13.5734C25.575 13.5577 25.5847 13.5415 25.5983 13.5278C25.6095 13.5165 25.6236 13.5081 25.6362 13.4983C25.6508 13.4865 25.6635 13.4737 25.679 13.4643L25.6795 13.4643L30.3573 10.7379C30.4778 10.6676 30.6267 10.6668 30.7479 10.7358L35.4542 13.412C35.4708 13.4217 35.4836 13.4338 35.4983 13.445C35.5105 13.4547 35.5247 13.4634 35.536 13.4741C35.5498 13.4882 35.5596 13.5042 35.5714 13.5198C35.5803 13.5314 35.5911 13.5416 35.598 13.5543C35.6093 13.5733 35.6158 13.5942 35.6237 13.6147C35.6281 13.6259 35.6345 13.6361 35.6375 13.6478ZM34.8971 18.8847L34.8732 14.4302L33.2364 15.3841L30.9752 16.7023L30.999 21.1568L34.8976 18.8847L34.8971 18.8847ZM30.2485 26.9679L30.2246 22.5104L28.0002 23.7966L21.6484 27.467L21.6725 31.9664L30.2485 26.9679ZM12.1812 11.8962L12.2624 27.0642L20.8904 31.9701L20.8663 27.4717L16.3591 24.9526L16.3577 24.9516L16.3557 24.9507C16.3405 24.942 16.3278 24.9293 16.3135 24.9187C16.3013 24.909 16.2871 24.9012 16.2763 24.8905L16.2753 24.8891C16.2625 24.877 16.2537 24.8619 16.2429 24.8483C16.233 24.8351 16.2212 24.824 16.2134 24.8103L16.2129 24.8089C16.204 24.7943 16.1985 24.7767 16.1921 24.7602C16.1857 24.7455 16.1773 24.7319 16.1733 24.7163L16.1733 24.7158C16.1683 24.6973 16.1672 24.6778 16.1652 24.6587C16.1632 24.6441 16.1592 24.6295 16.1591 24.6148L16.1591 24.6139L16.1029 14.1264L13.8282 12.8321L12.1812 11.8966L12.1812 11.8962ZM16.4668 8.94673L12.5696 11.2179L16.4899 13.4472L20.3865 11.1755L16.4658 8.94674L16.4668 8.94673ZM18.5749 22.979L20.8357 21.6614L20.7832 11.8501L19.1463 12.8041L16.8851 14.1222L16.9376 23.9335L18.5749 22.979ZM30.5569 11.5268L26.6602 13.7979L30.5809 16.0272L34.4771 13.7556L30.5569 11.5268ZM30.1935 16.7065L27.9182 15.4126L26.2713 14.4762L26.2952 18.9307L28.5699 20.2241L30.2174 21.161L30.1935 16.7065ZM21.2533 26.7929L26.9689 23.4892L29.826 21.8383L25.9082 19.6105L21.4251 22.2236L17.3391 24.6051L21.2533 26.7929Z" fill="#FF2D20"/>
</g>
</g>
<defs>
<filter id="filter0_d_259_153" x="0" y="0.946472" width="48.2139" height="48.2136" filterUnits="userSpaceOnUse" color-interpolation-filters="sRGB">
<feFlood flood-opacity="0" result="BackgroundImageFix"/>
<feColorMatrix in="SourceAlpha" type="matrix" values="0 0 0 0 0 0 0 0 0 0 0 0 0 0 0 0 0 0 127 0" result="hardAlpha"/>
<feOffset dy="4"/>
<feGaussianBlur stdDeviation="2"/>
<feComposite in2="hardAlpha" operator="out"/>
<feColorMatrix type="matrix" values="0 0 0 0 0 0 0 0 0 0 0 0 0 0 0 0 0 0 0.25 0"/>
<feBlend mode="normal" in2="BackgroundImageFix" result="effect1_dropShadow_259_153"/>
<feBlend mode="normal" in="SourceGraphic" in2="effect1_dropShadow_259_153" result="shape"/>
</filter>
<clipPath id="clip0_259_153">
<rect width="25" height="25" fill="white" transform="translate(11 8.13387) rotate(-0.306781)"/>
</clipPath>
</defs>
</svg>
