<svg width="48" height="48" viewBox="0 0 48 48" fill="none" xmlns="http://www.w3.org/2000/svg">
<g filter="url(#filter0_d_259_148)">
<rect x="4" width="40" height="40" rx="20" fill="white"/>
<path d="M25.0992 7.15505C24.4338 6.78081 23.5662 6.78249 22.9002 7.15505C19.5646 8.99588 16.2289 10.8373 12.8926 12.6772C12.2435 13.0188 11.8056 13.7159 11.8126 14.4395V25.562C11.8079 26.2997 12.2683 27.0036 12.9343 27.3404C13.8925 27.8503 14.8236 28.4118 15.7992 28.8877C16.9261 29.4415 18.336 29.5639 19.4767 28.9864C20.4027 28.5078 20.814 27.4433 20.8128 26.465C20.8203 22.7943 20.814 19.1235 20.8157 15.4528C20.8377 15.2896 20.7152 15.1153 20.5372 15.1192C20.111 15.1124 19.6841 15.1153 19.2578 15.1181C19.0968 15.1029 18.9396 15.2367 18.9517 15.3986C18.946 19.0456 18.9529 22.6938 18.9483 26.3414C18.9576 26.846 18.6167 27.3309 18.1304 27.5013C17.0074 27.895 13.8019 25.8136 13.8019 25.8136C13.6842 25.7592 13.6095 25.6316 13.621 25.5048C13.621 21.8353 13.6216 18.1656 13.621 14.4966C13.6049 14.3487 13.696 14.2154 13.8319 14.155C17.1566 12.3251 20.4795 10.4905 23.8042 8.6594C23.9197 8.58233 24.0806 8.58256 24.1958 8.65996C27.5205 10.4905 30.844 12.3234 34.1693 14.1535C34.3056 14.2138 34.3928 14.3492 34.379 14.4966C34.3784 18.1656 34.3801 21.8353 34.3778 25.5043C34.3877 25.6342 34.3206 25.76 34.1993 25.817C30.9057 27.6371 27.5746 29.3984 24.3108 31.2714C24.1684 31.353 24.007 31.4456 23.8475 31.3556C22.9892 30.8808 22.1413 30.3876 21.2858 29.9083C21.1928 29.8502 21.0744 29.8253 20.9774 29.8903C20.5939 30.0924 20.2331 30.2561 19.7927 30.4304C19.1741 30.6753 19.2729 30.7754 19.8308 31.1005C20.8312 31.6666 21.8333 32.2305 22.8337 32.7973C23.4923 33.2083 24.3773 33.2375 25.057 32.8577C28.3932 31.0192 31.7284 29.1785 35.0652 27.34C35.7293 27.0013 36.1921 26.3002 36.1874 25.5619V14.4395C36.1939 13.7306 35.7728 13.0459 35.1431 12.6993C31.7959 10.8495 28.447 9.00373 25.0992 7.15505Z" fill="#8CC84B"/>
<path d="M30.1331 15.5058C28.8237 14.8053 27.266 14.768 25.8109 14.8596C24.7597 14.9635 23.6541 15.2535 22.8882 16.0071C22.1027 16.7646 21.9317 17.9878 22.3048 18.9767C22.5722 19.6755 23.2452 20.1299 23.9412 20.3703C24.8378 20.6868 25.7794 20.7847 26.7213 20.8826C27.5804 20.9718 28.4398 21.0612 29.2656 21.3164C29.6029 21.4282 29.9957 21.5992 30.099 21.9662C30.1944 22.4008 30.0898 22.9061 29.7369 23.208C28.6161 24.0952 25.4981 23.9592 24.3907 23.261C23.9429 22.9635 23.75 22.4369 23.6715 21.9351C23.6628 21.7787 23.5369 21.6353 23.3671 21.6472C22.9419 21.6421 22.5168 21.6432 22.0916 21.6466C21.9433 21.6342 21.7891 21.7397 21.7809 21.8911C21.6936 24.1896 23.8045 25.1916 25.785 25.4122C26.9165 25.52 28.0728 25.5138 29.187 25.271C30.0246 25.0803 30.8644 24.7291 31.4409 24.084C32.1519 23.3 32.2917 22.1327 31.9729 21.1561C31.7291 20.4274 31.0325 19.96 30.3203 19.7195C29.3519 19.3874 28.2042 19.2089 27.3271 19.1254C26.0522 19.004 24.5372 19.0536 24.1763 18.2158C24.0324 17.7772 24.1549 17.2325 24.558 16.9627C25.6246 16.2392 27.7954 16.3353 28.8999 16.8758C29.4071 17.1297 29.701 17.6514 29.8223 18.178C29.8448 18.3327 29.9489 18.4941 30.128 18.4873C30.5502 18.4958 30.9725 18.4896 31.3946 18.4902C31.5397 18.5003 31.6985 18.4184 31.7268 18.2699C31.7089 17.1693 31.1468 16.0426 30.1331 15.5058Z" fill="#8CC84B"/>
</g>
<defs>
<filter id="filter0_d_259_148" x="0" y="0" width="48" height="48" filterUnits="userSpaceOnUse" color-interpolation-filters="sRGB">
<feFlood flood-opacity="0" result="BackgroundImageFix"/>
<feColorMatrix in="SourceAlpha" type="matrix" values="0 0 0 0 0 0 0 0 0 0 0 0 0 0 0 0 0 0 127 0" result="hardAlpha"/>
<feOffset dy="4"/>
<feGaussianBlur stdDeviation="2"/>
<feComposite in2="hardAlpha" operator="out"/>
<feColorMatrix type="matrix" values="0 0 0 0 0 0 0 0 0 0 0 0 0 0 0 0 0 0 0.25 0"/>
<feBlend mode="normal" in2="BackgroundImageFix" result="effect1_dropShadow_259_148"/>
<feBlend mode="normal" in="SourceGraphic" in2="effect1_dropShadow_259_148" result="shape"/>
</filter>
</defs>
</svg>
