<svg width="49" height="49" viewBox="0 0 49 49" fill="none" xmlns="http://www.w3.org/2000/svg">
<g filter="url(#filter0_d_259_140)">
<rect x="4.69922" width="40" height="40" rx="20" transform="rotate(1.33585 4.69922 0)" fill="white"/>
<g clip-path="url(#clip0_259_140)">
<path d="M24.2975 22.423C25.4565 22.4501 26.4179 21.5325 26.4449 20.3735C26.4719 19.2145 25.5543 18.2531 24.3954 18.2261C23.2364 18.199 22.275 19.1167 22.2479 20.2756C22.2209 21.4346 23.1385 22.396 24.2975 22.423Z" fill="#00D8FF"/>
<path fill-rule="evenodd" clip-rule="evenodd" d="M24.6037 15.9048C28.1811 16.0126 32.0786 16.3647 34.7025 18.8167C34.7796 18.8888 34.8538 18.9637 34.9261 19.0408C35.5432 19.6999 35.8493 20.748 35.319 21.5923C34.2311 23.3256 31.872 24.0377 29.5943 24.4568C26.1878 25.0835 22.643 25.0064 19.2689 24.306C17.3273 23.9025 15.348 23.2285 13.9928 21.8836C13.4654 21.3602 13.0199 20.6775 13.1095 19.9312C13.2549 18.724 14.4338 17.9745 15.4231 17.4715C18.171 16.0746 21.4852 15.8251 24.6037 15.9048ZM24.3313 16.4485C20.9454 16.3925 17.2762 16.5231 14.6118 18.6267C14.5186 18.7 14.4287 18.7771 14.3419 18.8581C14.2858 18.9102 14.2316 18.9648 14.1792 19.0208C13.7084 19.5255 13.5311 20.3499 13.9497 20.9791C14.371 21.612 15.0222 22.0769 15.695 22.4592C18.2115 23.8889 21.2172 24.2023 24.1528 24.2811C27.1251 24.3612 30.1966 24.1618 32.854 22.8654C33.9126 22.3486 35.1083 21.5812 35.0904 20.5568C35.0739 19.6168 34.1718 19.0153 33.4958 18.585C33.3129 18.4687 33.1246 18.3607 32.9333 18.2587C30.3573 16.8919 27.31 16.5113 24.3313 16.4485Z" fill="#00D8FF"/>
<path fill-rule="evenodd" clip-rule="evenodd" d="M29.3183 10.4759C30.6264 10.5397 31.2678 12.1291 31.3302 13.2934C31.3427 13.5249 31.3438 13.757 31.3356 13.9889C31.3269 14.24 31.3075 14.4909 31.2796 14.7406C30.9313 17.8327 29.4477 20.7506 27.7182 23.4368C26.0267 26.0643 23.9777 28.676 21.2459 29.8483C20.3427 30.2361 19.274 30.4634 18.4936 29.989C17.4238 29.339 17.3393 27.8751 17.3853 26.7673C17.3968 26.4951 17.421 26.2233 17.4554 25.9526C17.9655 21.9509 20.0875 18.1983 22.7085 14.9838C24.2376 13.1083 26.048 11.2549 28.2642 10.6201C28.6131 10.5199 28.8897 10.4608 29.3183 10.4759ZM29.2427 11.0237C27.7056 11.0122 26.2994 12.1188 25.0501 13.2736C21.7656 16.3089 19.3021 20.3903 18.2487 24.7061C18.1673 25.0404 18.0976 25.3773 18.0442 25.7169C18.0029 25.9799 17.9709 26.2446 17.9511 26.5104C17.9354 26.722 17.9267 26.9342 17.9283 27.1466C17.9291 27.3126 17.936 27.4788 17.9505 27.6441C17.9611 27.7705 17.9765 27.8965 17.9965 28.0217C18.0117 28.1145 18.0297 28.2068 18.051 28.2987C18.0685 28.3732 18.0884 28.4473 18.111 28.5209C18.2892 29.1032 18.7703 29.6668 19.4329 29.7005C20.9789 29.7788 22.4617 28.6848 23.7494 27.4882C26.0101 25.3883 27.7204 22.7232 29.0735 19.9115C30.1654 17.6414 31.1735 15.1695 30.7019 12.6317C30.684 12.5356 30.6627 12.4404 30.6382 12.3461C30.618 12.2692 30.5949 12.1932 30.5695 12.118C30.3764 11.5513 29.9031 11.0377 29.2427 11.0237Z" fill="#00D8FF"/>
<path fill-rule="evenodd" clip-rule="evenodd" d="M19.9421 10.2779C21.6115 10.3492 23.0852 11.5178 24.3874 12.8183C26.7636 15.1914 28.4874 18.1799 29.775 21.3129C30.7725 23.7401 31.6787 26.4597 30.7582 28.9748C30.4683 29.7675 29.7647 30.4825 28.849 30.4799C27.1701 30.4745 25.6432 29.218 24.3242 27.873C21.0153 24.4977 18.6031 20.0875 17.8494 15.4524C17.7952 15.121 17.7537 14.7872 17.7278 14.4522C17.7065 14.1789 17.6956 13.9043 17.6973 13.6301C17.6987 13.4088 17.7085 13.1877 17.7291 12.9678C17.7429 12.8209 17.7613 12.675 17.7848 12.5298C17.8072 12.3934 17.8348 12.2576 17.8684 12.1233C17.8906 12.0343 17.9152 11.9462 17.943 11.8587C18.2157 11.001 18.8907 10.2468 19.9421 10.2779ZM19.866 10.8261C18.8875 10.8249 18.4131 11.9677 18.3042 12.7749C18.2821 12.9404 18.2669 13.1074 18.2579 13.2746C18.2463 13.4881 18.2442 13.7024 18.25 13.9163C18.3316 17.0123 19.6443 20.0344 21.2487 22.811C22.7594 25.425 24.5966 28.0364 27.1751 29.4169C27.9197 29.8154 28.8285 30.1362 29.4878 29.7915C30.3146 29.3588 30.44 28.2847 30.5023 27.4834C30.5191 27.2653 30.5256 27.0461 30.5237 26.827C30.5217 26.5522 30.5065 26.2776 30.4805 26.0041C30.2391 23.4492 29.1669 21.0118 27.9238 18.7031C26.3769 15.8313 24.4666 12.9604 21.7043 11.4194C21.1322 11.1004 20.511 10.836 19.866 10.8261Z" fill="#00D8FF"/>
</g>
</g>
<defs>
<filter id="filter0_d_259_140" x="-0.233398" y="0" width="48.9219" height="48.9216" filterUnits="userSpaceOnUse" color-interpolation-filters="sRGB">
<feFlood flood-opacity="0" result="BackgroundImageFix"/>
<feColorMatrix in="SourceAlpha" type="matrix" values="0 0 0 0 0 0 0 0 0 0 0 0 0 0 0 0 0 0 127 0" result="hardAlpha"/>
<feOffset dy="4"/>
<feGaussianBlur stdDeviation="2"/>
<feComposite in2="hardAlpha" operator="out"/>
<feColorMatrix type="matrix" values="0 0 0 0 0 0 0 0 0 0 0 0 0 0 0 0 0 0 0.25 0"/>
<feBlend mode="normal" in2="BackgroundImageFix" result="effect1_dropShadow_259_140"/>
<feBlend mode="normal" in="SourceGraphic" in2="effect1_dropShadow_259_140" result="shape"/>
</filter>
<clipPath id="clip0_259_140">
<rect width="30" height="30" fill="white" transform="translate(9.69922 5) rotate(1.33585)"/>
</clipPath>
</defs>
</svg>
