<svg width="48" height="48" viewBox="0 0 48 48" fill="none" xmlns="http://www.w3.org/2000/svg">
<g filter="url(#filter0_d_259_134)">
<rect x="4" width="40" height="40" rx="20" fill="white"/>
<path d="M36.1972 9.71562L30.7916 7.11312C30.4863 6.96593 30.1428 6.91736 29.8087 6.97413C29.4746 7.03091 29.1664 7.19023 28.9269 7.42999L11.2316 23.5625C11.0169 23.7573 10.8884 24.0294 10.8743 24.319C10.8603 24.6086 10.9618 24.8919 11.1566 25.1066C11.1801 25.1319 11.2035 25.1562 11.2288 25.1787L12.6735 26.4912C12.8623 26.6631 13.1053 26.7633 13.3603 26.7746C13.6153 26.7859 13.8662 26.7076 14.0694 26.5531L35.3835 10.3906C35.5445 10.2685 35.7364 10.1937 35.9376 10.1746C36.1388 10.1556 36.3413 10.1931 36.5223 10.283C36.7033 10.3728 36.8557 10.5114 36.9622 10.6831C37.0688 10.8548 37.1253 11.0529 37.1254 11.255V11.1922C37.1253 10.8836 37.0382 10.5814 36.874 10.3202C36.7098 10.059 36.4753 9.84941 36.1972 9.71562Z" fill="#0065A9"/>
<path d="M36.1972 30.2844L30.7916 32.8878C30.4862 33.0346 30.1429 33.0829 29.8088 33.0262C29.4748 32.9694 29.1667 32.8104 28.9269 32.5709L11.2316 16.4375C11.0169 16.2427 10.8884 15.9706 10.8743 15.681C10.8603 15.3914 10.9618 15.1082 11.1566 14.8935C11.1801 14.8681 11.2035 14.8438 11.2288 14.8213L12.6735 13.5088C12.8625 13.3362 13.106 13.2355 13.3616 13.2242C13.6173 13.2129 13.8688 13.2917 14.0722 13.4469L35.3835 29.6094C35.5445 29.7316 35.7364 29.8064 35.9376 29.8254C36.1388 29.8444 36.3413 29.8069 36.5223 29.717C36.7033 29.6272 36.8557 29.4886 36.9622 29.3169C37.0688 29.1452 37.1253 28.9471 37.1254 28.745V28.8125C37.1244 29.1202 37.0368 29.4214 36.8727 29.6817C36.7085 29.942 36.4745 30.1509 36.1972 30.2844Z" fill="#007ACC"/>
<path d="M30.7913 32.8878C30.4859 33.0346 30.1425 33.0829 29.8085 33.0262C29.4745 32.9694 29.1663 32.8103 28.9266 32.5709C29.0612 32.7038 29.2321 32.794 29.4177 32.8302C29.6034 32.8664 29.7956 32.847 29.9703 32.7744C30.145 32.7018 30.2944 32.5793 30.3997 32.4222C30.5051 32.2651 30.5617 32.0804 30.5625 31.8912V8.10874C30.5627 7.9187 30.5064 7.73288 30.4009 7.57484C30.2954 7.41679 30.1453 7.29363 29.9697 7.22094C29.7941 7.14825 29.6009 7.12932 29.4145 7.16653C29.2282 7.20375 29.0571 7.29544 28.9229 7.42999C29.1624 7.19031 29.4705 7.03098 29.8046 6.97405C30.1386 6.91711 30.4821 6.96538 30.7875 7.11218L36.1922 9.71093C36.4711 9.84405 36.7067 10.0533 36.8717 10.3146C37.0368 10.5758 37.1246 10.8785 37.125 11.1875V28.8125C37.1251 29.1213 37.0379 29.4238 36.8736 29.6852C36.7092 29.9466 36.4743 30.1563 36.196 30.29L30.7913 32.8878Z" fill="#1F9CF0"/>
</g>
<defs>
<filter id="filter0_d_259_134" x="0" y="0" width="48" height="48" filterUnits="userSpaceOnUse" color-interpolation-filters="sRGB">
<feFlood flood-opacity="0" result="BackgroundImageFix"/>
<feColorMatrix in="SourceAlpha" type="matrix" values="0 0 0 0 0 0 0 0 0 0 0 0 0 0 0 0 0 0 127 0" result="hardAlpha"/>
<feOffset dy="4"/>
<feGaussianBlur stdDeviation="2"/>
<feComposite in2="hardAlpha" operator="out"/>
<feColorMatrix type="matrix" values="0 0 0 0 0 0 0 0 0 0 0 0 0 0 0 0 0 0 0.25 0"/>
<feBlend mode="normal" in2="BackgroundImageFix" result="effect1_dropShadow_259_134"/>
<feBlend mode="normal" in="SourceGraphic" in2="effect1_dropShadow_259_134" result="shape"/>
</filter>
</defs>
</svg>
